#N canvas -7 2 1362 674 12;
#X obj 401 1 cnv 15 648 198 empty cnv2 Multi-Osc 0 12 0 25 -233017
-66577 0;
#X obj 407 100 vsl 15 30 500 5000 0 0 \$0-multioscdecay empty Multi_Oscillator_Decay_Time
0 -9 0 10 -262144 -1 -1 0 1;
#X obj 408 42 vsl 15 30 0 100 0 0 \$0-chord1likelihood empty Chord_One_Likelihood
0 -9 0 10 -262144 -1 -1 0 1;
#X obj 489 52 vsl 15 30 0 100 0 0 \$0-chord2likelihood empty Chord_Two_Likelihood
0 -9 0 10 -262144 -1 -1 0 1;
#X obj 412 161 hsl 128 15 0 0.04 0 0 \$0-multioscvolume\$1 empty Volume
-2 -7 0 10 -262144 -1 -1 0 1;
#X floatatom 110 134 5 0 0 0 - - -;
#X floatatom 150 134 5 0 0 0 - - -;
#X obj 110 110 unpack f f;
#X obj 110 66 hradio 15 1 0 4 empty empty empty 0 -8 0 10 -262144 -1
-1 0;
#N canvas -8 -8 1366 685 melodies 0;
#X obj 151 40 inlet;
#N canvas -8 -8 1366 685 two_notes 0;
#X obj 22 307 outlet;
#X obj 22 39 inlet;
#X obj 22 87 tgl 15 0 empty empty empty 17 7 0 10 -262144 -1 -1 0 1
;
#X obj 22 111 sel 0 1;
#X msg 22 135 55;
#X msg 78 136 67;
#X obj 141 112 sel 0 1;
#X msg 174 136 60;
#X msg 141 136 50;
#X obj 81 236 poly 16 1;
#X obj 81 260 - 1;
#X obj 81 286 pack f f f;
#X obj 81 310 outlet;
#X obj 22 63 metro 200;
#X obj 87 40 inlet;
#X obj 22 185 pack;
#X connect 1 0 13 0;
#X connect 2 0 6 0;
#X connect 2 0 3 0;
#X connect 3 0 4 0;
#X connect 3 1 5 0;
#X connect 4 0 15 0;
#X connect 5 0 15 0;
#X connect 6 0 8 0;
#X connect 6 1 7 0;
#X connect 7 0 15 1;
#X connect 8 0 15 1;
#X connect 9 0 10 0;
#X connect 9 1 11 1;
#X connect 9 2 11 2;
#X connect 10 0 11 0;
#X connect 11 0 12 0;
#X connect 13 0 2 0;
#X connect 14 0 13 1;
#X connect 15 0 0 0;
#X connect 15 0 9 0;
#X restore 41 341 pd two_notes;
#X obj 41 247 tgl 15 0 empty empty empty 17 7 0 10 -262144 -1 -1 0
1;
#X obj 134 256 tgl 15 0 empty empty empty 17 7 0 10 -262144 -1 -1 0
1;
#X msg 64 249 0;
#X msg 155 253 0;
#N canvas -8 -8 1366 685 many_notes 0;
#X obj 37 37 inlet;
#X obj 37 115 i;
#X obj 37 139 + 1;
#X obj 37 163 % 6;
#X obj 37 91 metro 200;
#X obj 369 56 metro 2000;
#X obj 369 80 random 4;
#X obj 369 104 sel 0 1 2 3;
#X obj 37 61 t f f b;
#X obj 369 29 pipe 8000;
#X obj 118 35 tgl 15 0 empty empty empty 17 7 0 10 -262144 -1 -1 0
1;
#X obj 37 282 pack;
#X obj 60 235 - 18;
#X obj 139 324 poly 16 1;
#X obj 139 348 - 1;
#X obj 139 372 pack f f f;
#X obj 139 396 outlet;
#X obj 37 399 outlet;
#X obj 112 62 inlet;
#X obj 161 67 table testnotes;
#X obj 162 90 table testvelocities;
#X obj 37 189 tabread testnotes;
#X msg 222 132 \; testnotes 0 58 55 58 56 79 70 \; testvelocities 0
80 64 70 75 64 70;
#X msg 490 132 \; testnotes 0 72 75 58 56 79 60 \; testvelocities 0
80 64 70 75 64 70;
#X msg 370 186 \; testnotes 0 60 62 63 65 63 62 \; testvelocities 0
80 64 70 75 64 70;
#X msg 196 242 \; testnotes 0 60 67 62 68 70 \; testvelocities 0 80
64 70 75 64;
#X obj 66 213 tabread testvelocities;
#X connect 0 0 8 0;
#X connect 1 0 2 0;
#X connect 2 0 3 0;
#X connect 2 0 1 1;
#X connect 3 0 21 0;
#X connect 3 0 26 0;
#X connect 4 0 1 0;
#X connect 5 0 6 0;
#X connect 6 0 7 0;
#X connect 7 0 25 0;
#X connect 7 1 22 0;
#X connect 7 2 24 0;
#X connect 7 3 23 0;
#X connect 8 0 4 0;
#X connect 8 1 9 0;
#X connect 8 2 25 0;
#X connect 9 0 5 0;
#X connect 10 0 8 0;
#X connect 11 0 13 0;
#X connect 11 0 17 0;
#X connect 12 0 11 1;
#X connect 13 0 14 0;
#X connect 13 1 15 1;
#X connect 13 2 15 2;
#X connect 14 0 15 0;
#X connect 15 0 16 0;
#X connect 18 0 4 1;
#X connect 21 0 11 0;
#X connect 26 0 12 0;
#X restore 134 340 pd many_notes;
#N canvas -8 -8 1366 685 test_notes 0;
#X obj 37 37 inlet;
#X msg 42 169 48;
#X msg 77 169 62;
#X msg 110 168 58;
#X msg 142 170 51;
#X obj 109 30 inlet;
#X obj 36 91 random 8;
#X obj 37 115 sel 0 1 2 3 4 5 6 7;
#X msg 208 170 72;
#X msg 249 169 24;
#X obj 299 95 random 8;
#X obj 300 119 sel 0 1 2 3 4 5 6 7;
#X msg 294 172 48;
#X msg 329 172 62;
#X msg 362 171 58;
#X msg 394 173 51;
#X msg 460 173 64;
#X msg 427 173 55;
#X msg 501 172 45;
#X msg 540 172 40;
#X obj 139 324 poly 16 1;
#X obj 139 348 - 1;
#X obj 139 372 pack f f f;
#X obj 139 396 outlet;
#X obj 42 397 outlet;
#X obj 42 230 pack f f;
#X obj 36 70 metro;
#X connect 0 0 26 0;
#X connect 1 0 25 0;
#X connect 2 0 25 0;
#X connect 3 0 25 0;
#X connect 4 0 25 0;
#X connect 5 0 26 1;
#X connect 6 0 7 0;
#X connect 7 0 1 0;
#X connect 7 1 2 0;
#X connect 7 2 3 0;
#X connect 7 3 4 0;
#X connect 7 4 1 0;
#X connect 7 5 8 0;
#X connect 7 6 9 0;
#X connect 8 0 25 0;
#X connect 9 0 25 0;
#X connect 10 0 11 0;
#X connect 11 0 12 0;
#X connect 11 1 13 0;
#X connect 11 2 14 0;
#X connect 11 3 15 0;
#X connect 11 4 17 0;
#X connect 11 5 16 0;
#X connect 11 6 18 0;
#X connect 11 7 19 0;
#X connect 12 0 25 1;
#X connect 13 0 25 1;
#X connect 14 0 25 1;
#X connect 15 0 25 1;
#X connect 16 0 25 1;
#X connect 17 0 25 1;
#X connect 18 0 25 1;
#X connect 19 0 25 1;
#X connect 20 0 21 0;
#X connect 20 1 22 1;
#X connect 20 2 22 2;
#X connect 21 0 22 0;
#X connect 22 0 23 0;
#X connect 25 0 24 0;
#X connect 25 0 20 0;
#X connect 26 0 6 0;
#X connect 26 0 10 0;
#X restore 233 339 pd test_notes;
#X obj 233 253 tgl 15 0 empty empty empty 17 7 0 10 -262144 -1 -1 0
1;
#X msg 254 250 0;
#X obj 263 197 t f b;
#X obj 351 206 sel 1 2 3;
#X msg 454 174 1250;
#X obj 407 178 pipe;
#X msg 430 146 250;
#X obj 226 165 t f b;
#X obj 151 77 sel 0 1 2 3;
#X obj 275 145 t f b;
#X msg 179 109 1;
#X msg 217 117 2;
#X msg 249 109 3;
#X obj 134 449 outlet;
#X obj 178 286 inlet;
#X connect 0 0 16 0;
#X connect 1 0 21 0;
#X connect 2 0 1 0;
#X connect 3 0 6 0;
#X connect 4 0 2 0;
#X connect 5 0 3 0;
#X connect 6 0 21 0;
#X connect 7 0 21 0;
#X connect 8 0 7 0;
#X connect 9 0 8 0;
#X connect 10 0 13 0;
#X connect 10 1 4 0;
#X connect 10 1 5 0;
#X connect 10 1 9 0;
#X connect 11 0 2 0;
#X connect 11 1 3 0;
#X connect 11 2 8 0;
#X connect 12 0 13 1;
#X connect 13 0 11 0;
#X connect 14 0 13 1;
#X connect 15 0 10 0;
#X connect 15 1 14 0;
#X connect 16 0 4 0;
#X connect 16 0 5 0;
#X connect 16 0 9 0;
#X connect 16 1 18 0;
#X connect 16 2 19 0;
#X connect 16 3 20 0;
#X connect 17 0 10 0;
#X connect 17 1 12 0;
#X connect 18 0 15 0;
#X connect 19 0 17 0;
#X connect 20 0 17 0;
#X connect 22 0 1 1;
#X connect 22 0 7 1;
#X connect 22 0 6 1;
#X restore 110 86 pd melodies;
#X obj 209 40 vsl 15 128 175 300 0 0 empty empty empty 0 -9 0 10 -262144
-1 -1 0 1;
#X obj 478 116 vsl 15 30 0 100 0 0 \$0-chord1likelihood empty Wah-Wah_Likelihood
0 -9 0 10 -262144 -1 -1 0 1;
#X obj 401 200 cnv 15 648 389 empty empty Pattern_Generator 0 12 0
14 -233017 -66577 0;
#X obj 1072 481 tgl 15 0 empty empty empty 17 7 0 10 -262144 -1 -1
0 1;
#X obj 1072 505 metro;
#X obj 1072 529 f;
#X obj 1104 529 + 1;
#X obj 1104 557 mod;
#X floatatom 966 640 5 0 0 0 - - -;
#X floatatom 1115 505 5 0 0 0 - - -;
#X obj 174 365 table notes\$1;
#X obj 194 395 table velocity\$1;
#X obj 218 426 table durations\$1;
#X obj 1146 527 tabread durations\$1;
#X obj 966 612 tabread velocity\$1;
#X obj 1104 612 tabread notes\$1;
#X obj 641 494 else/display;
#X floatatom 639 466 5 0 100 2 Enter_Velocities_(Hz): - -;
#X obj 644 536 bng 15 250 50 0 empty empty Finish_Velocity_Pattern
0 -6 0 10 -262144 -1 -1;
#X obj 660 565 bng 15 250 50 0 empty empty Reset_Velocity_Pattern 0
-8 0 10 -262144 -1 -1;
#X obj 857 495 else/display;
#X floatatom 855 467 5 0 7 2 Enter_Notes_(Scale_Degrees): - -;
#X obj 860 537 bng 15 250 50 0 empty empty Finish_Notes_Pattern 0 -6
0 10 -262144 -1 -1;
#X obj 876 566 bng 15 250 50 0 empty empty Reset_Notes_Pattern 0 -8
0 10 -262144 -1 -1;
#X obj 165 523 loadbang;
#X obj 165 547 t b b b b;
#X msg 262 595 \; pd dsp 1 \;;
#N canvas -8 -8 1366 685 durationpatterns 0;
#X msg 189 276 add2 \$1;
#X msg 448 209 set;
#X msg 163 345 addsemi;
#X msg 319 354 add2 0;
#X msg 42 256 add2 \$1;
#X obj 460 322 t a a;
#X msg 262 255;
#X obj 19 156 t b f f;
#X msg 579 345 enter values above;
#X obj 163 71 inlet;
#X obj 342 102 inlet;
#X obj 19 11 inlet;
#X obj 406 507 outlet;
#X obj 19 103 spigot 1;
#X msg 88 108 0;
#X msg 86 81 1;
#X obj 163 208 t b b;
#X obj 19 57 t f b;
#X obj 77 33 f;
#X obj 107 33 + 1;
#X obj 114 58 sel 10;
#X msg 94 8 0;
#X obj 342 232 t b b b b b b b;
#X obj 159 33 s \$0-mod\$1;
#X obj 176 413 t a b;
#X msg 387 350 add2 durations\$1;
#X msg 189 481 \; durations\\\$1 0;
#X connect 0 0 26 0;
#X connect 1 0 5 0;
#X connect 2 0 24 0;
#X connect 3 0 26 0;
#X connect 4 0 6 0;
#X connect 5 0 6 0;
#X connect 5 1 26 0;
#X connect 6 0 12 0;
#X connect 7 0 6 0;
#X connect 7 1 4 0;
#X connect 7 2 0 0;
#X connect 8 0 12 0;
#X connect 9 0 16 0;
#X connect 10 0 22 0;
#X connect 11 0 17 0;
#X connect 13 0 7 0;
#X connect 14 0 13 1;
#X connect 15 0 13 1;
#X connect 16 0 2 0;
#X connect 16 1 14 0;
#X connect 17 0 13 0;
#X connect 17 1 18 0;
#X connect 18 0 19 0;
#X connect 19 0 18 1;
#X connect 19 0 20 0;
#X connect 19 0 23 0;
#X connect 20 0 14 0;
#X connect 21 0 18 1;
#X connect 22 0 3 0;
#X connect 22 1 25 0;
#X connect 22 2 2 0;
#X connect 22 3 1 0;
#X connect 22 4 8 0;
#X connect 22 5 15 0;
#X connect 22 6 21 0;
#X connect 24 0 26 0;
#X connect 24 1 26 0;
#X connect 25 0 26 0;
#X restore 330 643 pd durationpatterns;
#X floatatom 405 467 5 0 60 2 Enter_Durations_(Seconds): - -;
#X obj 410 537 bng 15 250 50 0 empty empty Finish_Duration_Pattern
0 -6 0 10 -262144 -1 -1;
#X obj 426 566 bng 15 250 50 0 empty empty Reset_Duration_Pattern 0
-8 0 10 -262144 -1 -1;
#X obj 407 495 else/display;
#N canvas -8 -8 1366 685 velocitypatterns 0;
#X msg 189 276 add2 \$1;
#X msg 448 209 set;
#X msg 163 345 addsemi;
#X msg 319 354 add2 0;
#X msg 42 256 add2 \$1;
#X obj 460 322 t a a;
#X msg 262 255;
#X obj 19 156 t b f f;
#X msg 579 345 enter values above;
#X obj 163 71 inlet;
#X obj 342 102 inlet;
#X obj 19 11 inlet;
#X obj 406 507 outlet;
#X obj 19 103 spigot 1;
#X msg 88 108 0;
#X msg 86 81 1;
#X obj 163 208 t b b;
#X obj 19 57 t f b;
#X obj 77 33 f;
#X obj 107 33 + 1;
#X obj 114 58 sel 10;
#X msg 94 8 0;
#X obj 342 232 t b b b b b b b;
#X obj 139 33 s \$0-mod\$1;
#X obj 176 413 t a b;
#X msg 387 350 add2 velocity\$1;
#X msg 189 481 \; velocity\\\$1 0;
#X connect 0 0 26 0;
#X connect 1 0 5 0;
#X connect 2 0 24 0;
#X connect 3 0 26 0;
#X connect 4 0 6 0;
#X connect 5 0 6 0;
#X connect 5 1 26 0;
#X connect 6 0 12 0;
#X connect 7 0 6 0;
#X connect 7 1 4 0;
#X connect 7 2 0 0;
#X connect 8 0 12 0;
#X connect 9 0 16 0;
#X connect 10 0 22 0;
#X connect 11 0 17 0;
#X connect 13 0 7 0;
#X connect 14 0 13 1;
#X connect 15 0 13 1;
#X connect 16 0 2 0;
#X connect 16 1 14 0;
#X connect 17 0 13 0;
#X connect 17 1 18 0;
#X connect 18 0 19 0;
#X connect 19 0 18 1;
#X connect 19 0 20 0;
#X connect 19 0 23 0;
#X connect 20 0 14 0;
#X connect 21 0 18 1;
#X connect 22 0 3 0;
#X connect 22 1 25 0;
#X connect 22 2 2 0;
#X connect 22 3 1 0;
#X connect 22 4 8 0;
#X connect 22 5 15 0;
#X connect 22 6 21 0;
#X connect 24 0 26 0;
#X connect 24 1 26 0;
#X connect 25 0 26 0;
#X restore 554 623 pd velocitypatterns;
#N canvas -8 -8 1366 685 notepatterns 0;
#X msg 189 276 add2 \$1;
#X msg 448 209 set;
#X msg 163 345 addsemi;
#X msg 319 354 add2 0;
#X obj 460 322 t a a;
#X msg 579 345 enter values above;
#X obj 163 71 inlet;
#X obj 342 102 inlet;
#X obj 19 11 inlet;
#X obj 406 507 outlet;
#X obj 19 103 spigot 1;
#X msg 88 108 0;
#X msg 86 81 1;
#X obj 163 208 t b b;
#X obj 19 57 t f b;
#X obj 77 33 f;
#X obj 107 33 + 1;
#X obj 114 58 sel 10;
#X msg 94 8 0;
#X obj 342 232 t b b b b b b b;
#X obj 139 33 s \$0-mod\$1;
#X msg 262 255;
#X obj 176 413 t a b;
#X msg 387 350 add2 notes\$1;
#X msg 189 481 \; notes\\\$1 0;
#X obj 19 156 t b f f;
#X msg 42 251 add2 \$1;
#X connect 0 0 24 0;
#X connect 1 0 4 0;
#X connect 2 0 22 0;
#X connect 3 0 24 0;
#X connect 4 0 21 0;
#X connect 4 1 24 0;
#X connect 5 0 9 0;
#X connect 6 0 13 0;
#X connect 7 0 19 0;
#X connect 8 0 14 0;
#X connect 10 0 25 0;
#X connect 11 0 10 1;
#X connect 12 0 10 1;
#X connect 13 0 2 0;
#X connect 13 1 11 0;
#X connect 14 0 10 0;
#X connect 14 1 15 0;
#X connect 15 0 16 0;
#X connect 16 0 15 1;
#X connect 16 0 17 0;
#X connect 16 0 20 0;
#X connect 17 0 11 0;
#X connect 18 0 15 1;
#X connect 19 0 3 0;
#X connect 19 1 23 0;
#X connect 19 2 2 0;
#X connect 19 3 1 0;
#X connect 19 4 5 0;
#X connect 19 5 12 0;
#X connect 19 6 18 0;
#X connect 21 0 9 0;
#X connect 22 0 24 0;
#X connect 22 1 24 0;
#X connect 23 0 24 0;
#X connect 25 0 21 0;
#X connect 25 1 26 0;
#X connect 25 2 0 0;
#X connect 26 0 21 0;
#X restore 804 629 pd notepatterns;
#X obj 1147 557 r \$0-mod\$1;
#X text 459 468 (limit on 10 numbers);
#X text 678 468 (limit on 10 numbers);
#X text 894 468 (limit on 10 numbers);
#X text 405 233 Harmony Modulator:;
#X text 404 273 Root Modulator:;
#X obj 557 276 tgl 15 0 empty empty a 0 -7 0 10 -262144 -1 -1 0 1;
#X obj 696 276 tgl 15 0 empty empty b 0 -7 0 10 -262144 -1 -1 0 1;
#X obj 846 276 tgl 15 0 empty empty c 0 -7 0 10 -262144 -1 -1 0 1;
#X obj 557 346 tgl 15 0 empty empty C 0 -7 0 10 -262144 -1 -1 0 1;
#X obj 696 346 tgl 15 0 empty empty E 0 -7 0 10 -262144 -1 -1 0 1;
#X obj 846 346 tgl 15 0 empty empty G 0 -7 0 10 -262144 -1 -1 0 1;
#X obj 927 346 tgl 15 0 empty empty A 0 -7 0 10 -262144 -1 -1 0 1;
#X obj 997 346 tgl 15 0 empty empty B 0 -7 0 10 -262144 -1 -1 0 1;
#X obj 617 346 tgl 15 0 empty empty D 0 -7 0 10 -262144 -1 -1 0 1;
#X obj 767 346 tgl 15 0 empty empty F 0 -7 0 10 -262144 -1 -1 0 1;
#X text 404 330 Tonal Centre:;
#X obj 585 322 tgl 15 0 empty empty Db/C$ 0 -7 0 10 -262144 -1 -1 0
1;
#X obj 655 322 tgl 15 0 empty empty Eb/D$ 0 -7 0 10 -262144 -1 -1 0
1;
#X obj 805 322 tgl 15 0 empty empty Gb/F$ 0 -7 0 10 -262144 -1 -1 0
1;
#X obj 885 322 tgl 15 0 empty empty Ab/G$ 0 -7 0 10 -262144 -1 -1 0
1;
#X obj 971 322 tgl 15 0 empty empty Bb/A$ 0 -7 0 10 -262144 -1 -1 0
1;
#X text 405 399 Octave Modulator:;
#X obj 580 401 tgl 15 0 50 0 empty 17 7 0 10 -262144 -1 -1 0 -1;
#X obj 620 401 tgl 15 0 50 0 empty 17 7 0 10 -262144 -1 -1 0 -1;
#X obj 660 401 tgl 15 0 50 0 empty 17 7 0 10 -262144 -1 -1 0 -1;
#X obj 700 401 tgl 15 0 50 0 empty 17 7 0 10 -262144 -1 -1 0 -1;
#X obj 740 401 tgl 15 0 50 0 empty 17 7 0 10 -262144 -1 -1 0 -1;
#X obj 780 401 tgl 15 0 50 0 empty 17 7 0 10 -262144 -1 -1 0 -1;
#X obj 820 401 tgl 15 0 50 0 empty 17 7 0 10 -262144 -1 -1 0 -1;
#X obj 860 401 tgl 15 0 50 0 empty 17 7 0 10 -262144 -1 -1 0 -1;
#X obj 900 401 tgl 15 0 50 0 empty 17 7 0 10 -262144 -1 -1 0 -1;
#X obj 940 401 tgl 15 0 50 0 empty 17 7 0 10 -262144 -1 -1 0 -1;
#X obj 977 401 tgl 15 0 50 0 empty 17 7 0 10 -262144 -1 -1 0 -1;
#X obj 927 276 tgl 15 0 empty empty g 0 -7 0 10 -262144 -1 -1 0 1;
#X obj 767 276 tgl 15 0 empty empty f 0 -7 0 10 -262144 -1 -1 0 1;
#X obj 617 276 tgl 15 0 empty empty e 0 -7 0 10 -262144 -1 -1 0 1;
#X obj 997 276 tgl 15 0 empty empty d 0 -7 0 10 -262144 -1 -1 0 1;
#X obj 582 231 tgl 15 0 b2\$1 b20\$1 b2 0 -7 0 10 -262144 -1 -1 0 1
;
#X obj 662 231 tgl 15 0 b3\$1 empty b3 0 -7 0 10 -262144 -1 -1 0 1
;
#X obj 797 231 tgl 15 0 \$4\$1 empty \$4 0 -7 0 10 -262144 -1 -1 0
1;
#X obj 877 231 tgl 15 0 \$5\$1 \$50\$1 \$5 0 -7 0 10 -262144 -1 -1
0 1;
#X obj 959 231 tgl 15 0 \$6\$1 \$60\$1 \$6 0 -7 0 10 -262144 -1 -1
0 1;
#X obj 643 231 tgl 15 0 \$2\$1 \$20\$1 \$2 0 -7 0 10 -262144 -1 -1
0 1;
#X obj 817 231 tgl 15 0 b5\$1 b50\$1 b5 0 -7 0 10 -262144 -1 -1 0 1
;
#X obj 898 231 tgl 15 0 b6\$1 b60\$1 b6 0 -7 0 10 -262144 -1 -1 0 1
;
#X obj 980 231 tgl 15 0 b7\$1 b70\$1 b7 0 -7 0 10 -262144 -1 -1 0 1
;
#X obj 1032 249 tgl 15 0 \$7\$1 \$70\$1 \$7 0 -7 0 10 -262144 -1 -1
0 1;
#N canvas -8 -8 1366 685 tonalcentre 0;
#X obj 156 130 sel 1;
#X msg 156 154 0;
#X obj 205 56 sel 1;
#X msg 173 55 1;
#X obj 224 152 sel 1;
#X msg 191 152 2;
#X obj 205 22 inlet;
#X obj 156 97 inlet;
#X obj 224 118 inlet;
#X obj 295 56 sel 1;
#X obj 314 172 sel 1;
#X obj 295 22 inlet;
#X obj 314 138 inlet;
#X msg 263 55 3;
#X msg 281 172 4;
#X obj 375 56 sel 1;
#X obj 394 202 sel 1;
#X obj 375 22 inlet;
#X obj 394 168 inlet;
#X msg 343 55 5;
#X msg 361 202 6;
#X obj 455 56 sel 1;
#X obj 474 230 sel 1;
#X obj 455 22 inlet;
#X obj 474 196 inlet;
#X obj 535 56 sel 1;
#X obj 554 260 sel 1;
#X obj 535 22 inlet;
#X obj 554 226 inlet;
#X msg 423 55 7;
#X msg 441 230 8;
#X msg 503 55 9;
#X msg 521 260 10;
#X obj 615 56 sel 1;
#X obj 615 22 inlet;
#X msg 583 55 11;
#X obj 29 283 s \$0-tonalcentre\$1;
#X connect 0 0 1 0;
#X connect 1 0 36 0;
#X connect 2 0 3 0;
#X connect 3 0 36 0;
#X connect 4 0 5 0;
#X connect 5 0 36 0;
#X connect 6 0 2 0;
#X connect 7 0 0 0;
#X connect 8 0 4 0;
#X connect 9 0 13 0;
#X connect 10 0 14 0;
#X connect 11 0 9 0;
#X connect 12 0 10 0;
#X connect 13 0 36 0;
#X connect 14 0 36 0;
#X connect 15 0 19 0;
#X connect 16 0 20 0;
#X connect 17 0 15 0;
#X connect 18 0 16 0;
#X connect 19 0 36 0;
#X connect 20 0 36 0;
#X connect 21 0 29 0;
#X connect 22 0 30 0;
#X connect 23 0 21 0;
#X connect 24 0 22 0;
#X connect 25 0 31 0;
#X connect 26 0 32 0;
#X connect 27 0 25 0;
#X connect 28 0 26 0;
#X connect 29 0 36 0;
#X connect 30 0 36 0;
#X connect 31 0 36 0;
#X connect 32 0 36 0;
#X connect 33 0 35 0;
#X connect 34 0 33 0;
#X connect 35 0 36 0;
#X restore 557 369 pd tonalcentre;
#X f 65;
#N canvas -8 -8 1366 685 octaves 0;
#X obj 156 130 sel 1;
#X msg 156 154 0;
#X obj 205 56 sel 1;
#X msg 173 55 1;
#X obj 224 152 sel 1;
#X msg 191 152 2;
#X obj 205 22 inlet;
#X obj 156 97 inlet;
#X obj 224 118 inlet;
#X obj 295 56 sel 1;
#X obj 314 172 sel 1;
#X obj 295 22 inlet;
#X obj 314 138 inlet;
#X msg 263 55 3;
#X msg 281 172 4;
#X obj 375 56 sel 1;
#X obj 394 202 sel 1;
#X obj 375 22 inlet;
#X obj 394 168 inlet;
#X msg 343 55 5;
#X msg 361 202 6;
#X obj 455 56 sel 1;
#X obj 474 230 sel 1;
#X obj 455 22 inlet;
#X obj 474 196 inlet;
#X obj 535 56 sel 1;
#X obj 554 260 sel 1;
#X obj 535 22 inlet;
#X obj 554 226 inlet;
#X msg 423 55 7;
#X msg 441 230 8;
#X msg 503 55 9;
#X msg 521 260 10;
#X obj 615 56 sel 1;
#X obj 615 22 inlet;
#X msg 583 55 11;
#X obj 29 283 s \$0-octaves\$1;
#X connect 0 0 1 0;
#X connect 1 0 36 0;
#X connect 2 0 3 0;
#X connect 3 0 36 0;
#X connect 4 0 5 0;
#X connect 5 0 36 0;
#X connect 6 0 2 0;
#X connect 7 0 0 0;
#X connect 8 0 4 0;
#X connect 9 0 13 0;
#X connect 10 0 14 0;
#X connect 11 0 9 0;
#X connect 12 0 10 0;
#X connect 13 0 36 0;
#X connect 14 0 36 0;
#X connect 15 0 19 0;
#X connect 16 0 20 0;
#X connect 17 0 15 0;
#X connect 18 0 16 0;
#X connect 19 0 36 0;
#X connect 20 0 36 0;
#X connect 21 0 29 0;
#X connect 22 0 30 0;
#X connect 23 0 21 0;
#X connect 24 0 22 0;
#X connect 25 0 31 0;
#X connect 26 0 32 0;
#X connect 27 0 25 0;
#X connect 28 0 26 0;
#X connect 29 0 36 0;
#X connect 30 0 36 0;
#X connect 31 0 36 0;
#X connect 32 0 36 0;
#X connect 33 0 35 0;
#X connect 34 0 33 0;
#X connect 35 0 36 0;
#X restore 580 427 pd octaves;
#X f 62;
#N canvas -8 -8 1366 685 harmonydeterminer 0;
#X obj 246 202 tgl 15 0 empty b2\$1 b2 0 -7 0 10 -262144 -1 -1 0 1
;
#X obj 323 202 tgl 15 0 empty b3\$1 b3 0 -7 0 10 -262144 -1 -1 0 1
;
#X obj 359 202 tgl 15 0 empty \$4\$1 \$4 0 -7 0 10 -262144 -1 -1 0
1;
#X obj 425 202 tgl 15 0 empty \$5\$1 \$5 0 -7 0 10 -262144 -1 -1 0
1;
#X obj 486 202 tgl 15 0 empty \$6\$1 \$6 0 -7 0 10 -262144 -1 -1 0
1;
#X text 104 200 Harmony Modulator:;
#X obj 521 552 + 60;
#X obj 50 167 hradio 15 1 0 7 empty empty empty 0 -8 0 10 -262144 -1
-1 6;
#X obj 521 515 *;
#X obj 562 449 t b f;
#X obj 562 401 hradio 15 1 0 11 empty empty empty 0 -8 0 10 -262144
-1 -1 5;
#X msg 511 487 12;
#X obj 562 421 - 5;
#X obj 23 197 * 2;
#X obj 23 223 expr if($f1 == 6 \, 5 \, $f1);
#X obj 23 247 expr if($f1 >= 8 \, $f1-1 \, $f1);
#X text 156 166 scale;
#X text 739 398 octave;
#X obj 398 585 +;
#X obj 543 366 hradio 15 1 0 12 empty empty empty 0 -8 0 12 -262144
-1 -1 0;
#X obj 398 553 +;
#X text 727 362 tonal centre;
#X obj 23 273 expr if($f1 == 2 \, $f1-$f2 \, $f1);
#X obj 287 201 tgl 15 0 empty \$2\$1 \$2 0 -7 0 10 -262144 -1 -1 0
1;
#X obj 23 303 expr if($f1 == 2 \, $f1+$f2 \, $f1);
#X obj 265 141 sel 1;
#X msg 265 166 0;
#X obj 263 234 sel 1;
#X msg 263 259 0;
#X text 31 114 do re me fa so la ti;
#X text 34 135 0__2__4__5__7__9__11;
#X text 252 276 0__1__4__5__7__9__11;
#X text 244 301 0__3__4__5__7__9__11;
#X obj 23 327 expr if($f1 == 4 \, $f1-$f2 \, $f1);
#X text 244 327 0__2__3__5__7__9__11;
#X obj 23 351 expr if($f1 == 5 \, $f1+$f2 \, $f1);
#X obj 394 202 tgl 15 0 empty b5\$1 b5 0 -7 0 10 -262144 -1 -1 0 1
;
#X obj 23 375 expr if($f1 == 7 \, $f1-$f2 \, $f1);
#X text 244 376 0__2__4__5__6__9__11;
#X text 244 351 0__2__4__6__7__9__11;
#X obj 456 202 tgl 15 0 empty b6\$1 b6 0 -7 0 10 -262144 -1 -1 0 1
;
#X text 244 400 0__2__4__5__8__9__11;
#X obj 23 399 expr if($f1 == 7 \, $f1+$f2 \, $f1);
#X text 244 425 0__2__4__5__7__8__11;
#X obj 23 424 expr if($f1 == 9 \, $f1+$f2 \, $f1);
#X obj 405 141 sel 1;
#X msg 405 167 0;
#X obj 403 234 sel 1;
#X msg 403 259 0;
#X obj 516 202 tgl 15 0 empty b7\$1 b7 0 -7 0 10 -262144 -1 -1 0 1
;
#X obj 542 202 tgl 15 0 empty \$7\$1 \$7 0 -7 0 10 -262144 -1 -1 0
1;
#X obj 23 448 expr if($f1 == 9 \, $f1+$f2 \, $f1);
#X text 244 449 0__2__4__5__7__10__11;
#X obj 465 141 sel 1;
#X msg 465 166 0;
#X obj 463 234 sel 1;
#X msg 463 259 0;
#X obj 525 141 sel 1;
#X msg 525 165 0;
#X obj 523 234 sel 1;
#X msg 523 259 0;
#X obj 23 472 expr if($f1 == 11 \, $f1-$f2 \, $f1);
#X obj 23 496 expr if($f1 == 11 \, $f1+$f2 \, $f1);
#X text 252 473 0__2__4__5__7__9__10;
#X text 253 496 0__2__4__5__7__9__12;
#X floatatom 199 178 5 0 0 0 - - -;
#X obj 148 63 metro 200;
#X obj 179 87 + 1;
#X obj 65 64 tgl 15 0 empty empty empty 17 7 0 10 -262144 -1 -1 0 1
;
#X obj 276 86 + 1;
#X obj 243 86 -1;
#X obj 65 84 sel 0;
#X msg 233 131 1;
#X msg 266 63 -1;
#X msg 338 183 0;
#X obj 357 86 route 0 1 2 3 4 5 6 7 8 9 10;
#X obj 306 87 mod 11;
#X msg 115 87 -1;
#X obj 148 87 -1;
#X obj 179 136 t f f;
#X obj 224 31 sel 0;
#X obj 179 112 mod 7;
#X obj 307 127 s b20;
#X obj 297 258 s \$20;
#X obj 358 149 s b50;
#X obj 403 283 s \$50;
#X obj 463 283 s \$60;
#X obj 513 112 s b60;
#X obj 523 283 s \$70;
#X obj 565 163 s b70;
#X obj 23 31 inlet;
#X obj 398 609 outlet;
#X obj 471 343 r \$0-tonalcentre\$1;
#X obj 444 403 r \$0-octaves\$1;
#X connect 0 0 22 1;
#X connect 0 0 27 0;
#X connect 1 0 33 1;
#X connect 2 0 35 1;
#X connect 3 0 42 1;
#X connect 3 0 45 0;
#X connect 4 0 51 1;
#X connect 4 0 53 0;
#X connect 6 0 18 1;
#X connect 7 0 13 0;
#X connect 8 0 6 0;
#X connect 9 0 11 0;
#X connect 9 1 8 1;
#X connect 10 0 12 0;
#X connect 11 0 8 0;
#X connect 12 0 9 0;
#X connect 13 0 14 0;
#X connect 14 0 15 0;
#X connect 15 0 22 0;
#X connect 18 0 91 0;
#X connect 19 0 20 1;
#X connect 20 0 18 0;
#X connect 22 0 24 0;
#X connect 23 0 25 0;
#X connect 23 0 24 1;
#X connect 24 0 33 0;
#X connect 25 0 26 0;
#X connect 26 0 82 0;
#X connect 27 0 28 0;
#X connect 28 0 83 0;
#X connect 33 0 35 0;
#X connect 35 0 37 0;
#X connect 36 0 37 1;
#X connect 36 0 47 0;
#X connect 37 0 42 0;
#X connect 40 0 44 1;
#X connect 40 0 55 0;
#X connect 42 0 44 0;
#X connect 44 0 51 0;
#X connect 45 0 46 0;
#X connect 46 0 84 0;
#X connect 47 0 48 0;
#X connect 48 0 85 0;
#X connect 49 0 59 0;
#X connect 49 0 61 1;
#X connect 50 0 57 0;
#X connect 50 0 62 1;
#X connect 51 0 61 0;
#X connect 53 0 54 0;
#X connect 54 0 87 0;
#X connect 55 0 56 0;
#X connect 56 0 86 0;
#X connect 57 0 58 0;
#X connect 58 0 89 0;
#X connect 59 0 60 0;
#X connect 60 0 88 0;
#X connect 61 0 62 0;
#X connect 62 0 65 0;
#X connect 62 0 20 0;
#X connect 66 0 78 0;
#X connect 67 0 78 1;
#X connect 67 0 81 0;
#X connect 68 0 66 0;
#X connect 68 0 71 0;
#X connect 69 0 70 1;
#X connect 69 0 76 0;
#X connect 70 0 69 0;
#X connect 71 0 77 0;
#X connect 71 0 73 0;
#X connect 72 0 0 0;
#X connect 73 0 70 1;
#X connect 74 0 50 0;
#X connect 74 0 0 0;
#X connect 74 0 23 0;
#X connect 74 0 49 0;
#X connect 74 0 40 0;
#X connect 74 0 36 0;
#X connect 74 0 4 0;
#X connect 74 0 3 0;
#X connect 74 0 2 0;
#X connect 74 0 1 0;
#X connect 75 0 74 0;
#X connect 75 1 72 0;
#X connect 75 2 23 0;
#X connect 75 3 23 0;
#X connect 75 3 1 0;
#X connect 75 4 1 0;
#X connect 75 4 2 0;
#X connect 75 5 2 0;
#X connect 75 5 36 0;
#X connect 75 6 36 0;
#X connect 75 6 3 0;
#X connect 75 7 3 0;
#X connect 75 7 40 0;
#X connect 75 8 40 0;
#X connect 75 8 4 0;
#X connect 75 9 4 0;
#X connect 75 9 49 0;
#X connect 75 10 49 0;
#X connect 75 10 50 0;
#X connect 75 11 50 0;
#X connect 76 0 75 0;
#X connect 77 0 78 1;
#X connect 78 0 67 0;
#X connect 79 0 7 0;
#X connect 79 1 80 0;
#X connect 80 0 70 0;
#X connect 81 0 79 0;
#X connect 90 0 13 0;
#X connect 92 0 19 0;
#X connect 93 0 10 0;
#X restore 1104 643 pd harmonydeterminer;
#X floatatom 1104 668 5 0 0 0 - - -;
#X obj 966 662 s multioscvelocity;
#X obj 1011 401 tgl 15 0 50 0 empty 17 7 0 10 -262144 -1 -1 0 -1;
#X obj 1120 478 * 1000;
#X obj 402 590 t b b;
#X obj 631 589 t b b;
#X obj 857 593 t b b;
#X obj 920 637 f;
#X obj 920 661 + 1;
#X obj 920 685 sel 1;
#X obj 700 627 f;
#X obj 700 651 + 1;
#X obj 700 675 sel 1;
#X obj 470 627 f;
#X obj 470 651 + 1;
#X obj 470 675 sel 1;
#X obj 801 683 f;
#X obj 801 708 + 1;
#X obj 801 731 sel 3;
#X msg 883 720 1;
#X obj 1104 694 s \$0-multioscnotes;
#X obj 225 15 r \$0-chord1likelihoodr\$1;
#X obj 239 81 s \$0-chord1likelihood\$1;
#X obj 110 189 s \$0-multioscnotes\$1;
#N canvas -8 -8 1366 685 multi-osc 0;
#X floatatom 155 142 5 0 0 0 Decay_Time #0-multioscdecay#1 -;
#N canvas 674 233 450 300 multi-oscillator 0;
#X obj 107 217 *~;
#X obj 107 142 t f b;
#N canvas 704 98 450 300 envelope 0;
#X msg 193 127 1 5;
#X obj 193 162 line~;
#X obj 236 133 pack 0 500;
#X obj 236 107 del 50;
#X obj 193 48 inlet;
#X obj 192 245 outlet~;
#X obj 314 97 inlet;
#X obj 192 193 *~;
#X obj 192 219 *~;
#X connect 0 0 1 0;
#X connect 1 0 7 0;
#X connect 1 0 7 1;
#X connect 2 0 1 0;
#X connect 3 0 2 0;
#X connect 4 0 0 0;
#X connect 4 0 3 0;
#X connect 6 0 2 1;
#X connect 7 0 8 0;
#X connect 7 0 8 1;
#X connect 8 0 5 0;
#X restore 281 151 pd envelope;
#X obj 358 118 inlet;
#X obj 107 243 outlet~;
#X obj 105 112 inlet;
#X floatatom 151 219 5 0 0 0 - - -;
#N canvas 97 142 450 300 oscs 0;
#X obj 70 120 osc~;
#X obj 150 137 osc~;
#X obj 156 109 * 1.015;
#X obj 231 137 osc~;
#X obj 237 109 * 0.503;
#X obj 302 141 osc~;
#X obj 302 167 *~ 0.5;
#X obj 308 113 * 1.496;
#X obj 377 143 osc~;
#X obj 383 115 * 2.01;
#X obj 377 169 *~ 0.25;
#X obj 70 56 inlet;
#X obj 74 240 outlet~;
#X connect 0 0 12 0;
#X connect 1 0 12 0;
#X connect 2 0 1 0;
#X connect 3 0 12 0;
#X connect 4 0 3 0;
#X connect 5 0 6 0;
#X connect 6 0 12 0;
#X connect 7 0 5 0;
#X connect 8 0 10 0;
#X connect 9 0 8 0;
#X connect 10 0 12 0;
#X connect 11 0 0 0;
#X connect 11 0 2 0;
#X connect 11 0 9 0;
#X connect 11 0 7 0;
#X connect 11 0 4 0;
#X restore 107 183 pd oscs;
#X connect 0 0 4 0;
#X connect 1 0 7 0;
#X connect 1 1 2 0;
#X connect 2 0 0 1;
#X connect 3 0 2 1;
#X connect 5 0 1 0;
#X connect 6 0 0 1;
#X connect 7 0 0 0;
#X restore 36 231 pd multi-oscillator;
#X obj 431 117 * 0.5;
#X obj 236 86 * 2;
#X obj 134 43 spigot;
#X obj 306 94 spigot;
#X obj 190 44 tgl 15 0 empty \$0-chord1\$1 empty 17 7 0 10 -262144
-1 -1 0 1;
#X obj 362 93 tgl 15 0 empty \$0-chord2\$1 empty 17 7 0 10 -262144
-1 -1 0 1;
#N canvas 674 233 450 300 multi-oscillator 0;
#X obj 107 217 *~;
#X obj 107 142 t f b;
#N canvas 704 98 450 300 envelope 0;
#X msg 193 127 1 5;
#X obj 193 162 line~;
#X obj 236 133 pack 0 500;
#X obj 236 107 del 50;
#X obj 193 48 inlet;
#X obj 192 245 outlet~;
#X obj 314 97 inlet;
#X obj 192 193 *~;
#X obj 192 219 *~;
#X connect 0 0 1 0;
#X connect 1 0 7 0;
#X connect 1 0 7 1;
#X connect 2 0 1 0;
#X connect 3 0 2 0;
#X connect 4 0 0 0;
#X connect 4 0 3 0;
#X connect 6 0 2 1;
#X connect 7 0 8 0;
#X connect 7 0 8 1;
#X connect 8 0 5 0;
#X restore 281 151 pd envelope;
#X obj 358 118 inlet;
#X obj 107 243 outlet~;
#X obj 105 112 inlet;
#X floatatom 151 219 5 0 0 0 - - -;
#N canvas 97 142 450 300 oscs 0;
#X obj 70 120 osc~;
#X obj 150 137 osc~;
#X obj 156 109 * 1.015;
#X obj 231 137 osc~;
#X obj 237 109 * 0.503;
#X obj 302 141 osc~;
#X obj 302 167 *~ 0.5;
#X obj 308 113 * 1.496;
#X obj 377 143 osc~;
#X obj 383 115 * 2.01;
#X obj 377 169 *~ 0.25;
#X obj 70 56 inlet;
#X obj 74 240 outlet~;
#X connect 0 0 12 0;
#X connect 1 0 12 0;
#X connect 2 0 1 0;
#X connect 3 0 12 0;
#X connect 4 0 3 0;
#X connect 5 0 6 0;
#X connect 6 0 12 0;
#X connect 7 0 5 0;
#X connect 8 0 10 0;
#X connect 9 0 8 0;
#X connect 10 0 12 0;
#X connect 11 0 0 0;
#X connect 11 0 2 0;
#X connect 11 0 9 0;
#X connect 11 0 7 0;
#X connect 11 0 4 0;
#X restore 107 183 pd oscs;
#X connect 0 0 4 0;
#X connect 1 0 7 0;
#X connect 1 1 2 0;
#X connect 2 0 0 1;
#X connect 3 0 2 1;
#X connect 5 0 1 0;
#X connect 6 0 0 1;
#X connect 7 0 0 0;
#X restore 210 234 pd multi-oscillator;
#N canvas 674 233 450 300 multi-oscillator 0;
#X obj 107 217 *~;
#X obj 107 142 t f b;
#N canvas 704 98 450 300 envelope 0;
#X msg 193 127 1 5;
#X obj 193 162 line~;
#X obj 236 133 pack 0 500;
#X obj 236 107 del 50;
#X obj 193 48 inlet;
#X obj 192 245 outlet~;
#X obj 314 97 inlet;
#X obj 192 193 *~;
#X obj 192 219 *~;
#X connect 0 0 1 0;
#X connect 1 0 7 0;
#X connect 1 0 7 1;
#X connect 2 0 1 0;
#X connect 3 0 2 0;
#X connect 4 0 0 0;
#X connect 4 0 3 0;
#X connect 6 0 2 1;
#X connect 7 0 8 0;
#X connect 7 0 8 1;
#X connect 8 0 5 0;
#X restore 281 151 pd envelope;
#X obj 358 118 inlet;
#X obj 107 243 outlet~;
#X obj 105 112 inlet;
#X floatatom 151 219 5 0 0 0 - - -;
#N canvas 97 142 450 300 oscs 0;
#X obj 70 120 osc~;
#X obj 150 137 osc~;
#X obj 156 109 * 1.015;
#X obj 231 137 osc~;
#X obj 237 109 * 0.503;
#X obj 302 141 osc~;
#X obj 302 167 *~ 0.5;
#X obj 308 113 * 1.496;
#X obj 377 143 osc~;
#X obj 383 115 * 2.01;
#X obj 377 169 *~ 0.25;
#X obj 70 56 inlet;
#X obj 74 240 outlet~;
#X connect 0 0 12 0;
#X connect 1 0 12 0;
#X connect 2 0 1 0;
#X connect 3 0 12 0;
#X connect 4 0 3 0;
#X connect 5 0 6 0;
#X connect 6 0 12 0;
#X connect 7 0 5 0;
#X connect 8 0 10 0;
#X connect 9 0 8 0;
#X connect 10 0 12 0;
#X connect 11 0 0 0;
#X connect 11 0 2 0;
#X connect 11 0 9 0;
#X connect 11 0 7 0;
#X connect 11 0 4 0;
#X restore 107 183 pd oscs;
#X connect 0 0 4 0;
#X connect 1 0 7 0;
#X connect 1 1 2 0;
#X connect 2 0 0 1;
#X connect 3 0 2 1;
#X connect 5 0 1 0;
#X connect 6 0 0 1;
#X connect 7 0 0 0;
#X restore 363 235 pd multi-oscillator;
#X obj 36 96 mtof;
#X obj 646 424 tgl 15 0 \$0-chord1\$1 empty Open/Close_Chord_1 17 7
0 10 -262144 -1 -1 0 1;
#X obj 595 551 tgl 15 0 \$0-chord2\$1 empty Open/Close_Chord_2 17 7
0 10 -262144 -1 -1 0 1;
#X obj 131 327 hsl 128 15 0 1 0 0 empty empty Volume:_0_-_0.5 -2 21
0 10 -262144 -1 -1 0 1;
#X obj 332 501 * 27.39;
#X msg 811 368 0;
#X msg 774 368 1;
#X msg 645 492 0;
#X msg 608 492 1;
#X obj 448 264 t f f;
#X floatatom 487 320 5 0 0 0 - - -;
#X obj 487 294 > 0;
#X obj 399 312 spigot;
#X floatatom 413 359 5 0 0 0 - - -;
#X obj 49 64 + 12;
#X obj 137 719 *~ 0;
#X obj 36 723 *~ 1;
#X msg 99 657 1;
#X msg 143 657 0;
#X obj 142 619 t b;
#X msg 242 666 1;
#X msg 282 668 0;
#X obj 260 619 t b;
#X obj 203 590 route 0 1;
#X obj 63 641 *~;
#X obj 74 596 osc~ 5;
#X obj 35 836 dac~;
#X obj 203 548 tgl 15 0 empty empty Wah-wah_On/Off 17 7 0 10 -262144
-1 -1 0 1;
#X obj 158 740 hsl 128 15 0 0.04 0 0 empty \$0-multioscvolume\$1 Volume:_0_-_0.04
-2 21 0 10 -262144 -1 -1 0 1;
#X obj 400 508 vsl 15 40 0 54.78 0 0 empty \$0-multioscdecaymultiplier\$1
Multi_Oscillator_Decay_Time 0 -9 0 10 -262144 -1 -1 0 1;
#X floatatom 332 527 5 0 0 0 - - multioscdecay;
#X obj 606 381 vsl 15 40 0 100 0 0 empty \$0-chord1likelihood\$1 Chord_One_Likelihood
0 -9 0 10 -262144 -1 -1 0 1;
#X obj 770 259 vsl 15 40 0 100 0 0 empty \$0-chord2likelihood\$1 Chord_Two_Likelihood
0 -9 0 10 -262144 -1 -1 0 1;
#X obj 36 762 *~;
#X obj 35 799 *~ 2;
#X floatatom 40 29 5 0 0 0 - - -;
#X obj 36 140 t f;
#X obj 37 316 *~ 1;
#X obj 155 798 vline~;
#X msg 155 773 \$1 5;
#X obj 570 160 r \$0-multiosc;
#X obj 570 184 bang;
#X obj 570 208 random 100;
#X floatatom 570 232 5 0 0 0 - - -;
#X obj 105 389 vline~;
#X msg 105 364 \$1 5;
#X obj 38 465 *~;
#X obj 555 438 moses 0;
#X obj 721 313 moses 0;
#X msg 542 653 0;
#X msg 505 653 1;
#X obj 452 599 moses 0;
#X obj 493 539 vsl 15 40 0 100 0 0 empty \$0-multioscwahwah\$1 Wah-Wah_Likelihood
0 -9 0 10 -262144 -1 -1 0 1;
#X obj 164 428 * 0.005;
#X obj 179 390 r \$0-multioscvelocity\$1;
#X obj 32 3 r \$0-multioscnotes\$1;
#X connect 0 0 1 1;
#X connect 0 0 8 1;
#X connect 0 0 9 1;
#X connect 1 0 47 0;
#X connect 2 0 9 0;
#X connect 3 0 8 0;
#X connect 4 0 3 0;
#X connect 5 0 2 0;
#X connect 6 0 4 1;
#X connect 7 0 5 1;
#X connect 8 0 47 0;
#X connect 9 0 47 0;
#X connect 10 0 46 0;
#X connect 13 0 55 0;
#X connect 14 0 40 0;
#X connect 15 0 11 0;
#X connect 16 0 11 0;
#X connect 17 0 12 0;
#X connect 18 0 12 0;
#X connect 19 0 22 0;
#X connect 19 1 21 0;
#X connect 20 0 22 1;
#X connect 21 0 20 0;
#X connect 22 0 23 0;
#X connect 23 0 14 0;
#X connect 23 0 57 0;
#X connect 23 0 58 0;
#X connect 23 0 61 0;
#X connect 24 0 10 0;
#X connect 25 0 43 0;
#X connect 26 0 43 0;
#X connect 27 0 26 1;
#X connect 28 0 25 1;
#X connect 29 0 27 0;
#X connect 29 0 28 0;
#X connect 30 0 25 1;
#X connect 31 0 26 1;
#X connect 32 0 31 0;
#X connect 32 0 30 0;
#X connect 33 0 29 0;
#X connect 33 1 32 0;
#X connect 34 0 25 0;
#X connect 35 0 34 1;
#X connect 37 0 33 0;
#X connect 38 0 49 0;
#X connect 39 0 14 1;
#X connect 41 0 57 1;
#X connect 42 0 58 1;
#X connect 43 0 44 0;
#X connect 44 0 36 0;
#X connect 44 0 36 1;
#X connect 45 0 24 0;
#X connect 46 0 1 0;
#X connect 46 0 4 0;
#X connect 46 0 5 0;
#X connect 47 0 56 0;
#X connect 48 0 43 1;
#X connect 49 0 48 0;
#X connect 50 0 51 0;
#X connect 51 0 52 0;
#X connect 52 0 53 0;
#X connect 53 0 19 0;
#X connect 54 0 56 1;
#X connect 55 0 54 0;
#X connect 56 0 34 0;
#X connect 56 0 26 0;
#X connect 57 0 18 0;
#X connect 57 1 17 0;
#X connect 58 0 16 0;
#X connect 58 1 15 0;
#X connect 59 0 37 0;
#X connect 60 0 37 0;
#X connect 61 0 60 0;
#X connect 61 1 59 0;
#X connect 62 0 61 1;
#X connect 63 0 13 0;
#X connect 64 0 63 0;
#X connect 65 0 45 0;
#X restore 187 246 pd multi-osc;
#X obj 55 276 r \$0-multioscdecaymultiplierr\$1;
#X obj 135 317 s \$0-multioscdecaymultiplier\$1;
#X obj 1183 206 s \$0-multioscwahwah\$1;
#X obj 1186 174 r \$0-multioscwahwahc\$1;
#X obj 1114 76 s \$0-chord2likelihood\$1;
#X obj 1112 43 r \$0-chord2likelihoodr\$1;
#X msg 1418 402 message;
#X obj 1418 426 print \$0-multiosc;
#X obj 1419 491 print \$1-argument;
#X obj 1419 461 r message;
#X obj 149 217 s \$0-multioscvelocity\$1;
#X connect 1 0 121 0;
#X connect 2 0 117 0;
#X connect 3 0 124 0;
#X connect 5 0 118 0;
#X connect 6 0 130 0;
#X connect 7 0 5 0;
#X connect 7 1 6 0;
#X connect 8 0 9 0;
#X connect 9 0 7 0;
#X connect 10 0 9 1;
#X connect 11 0 122 0;
#X connect 13 0 14 0;
#X connect 14 0 15 0;
#X connect 15 0 16 0;
#X connect 16 0 15 1;
#X connect 16 0 17 0;
#X connect 17 0 23 0;
#X connect 17 0 24 0;
#X connect 17 0 25 0;
#X connect 18 0 96 0;
#X connect 19 0 14 1;
#X connect 23 0 98 0;
#X connect 24 0 18 0;
#X connect 25 0 94 0;
#X connect 27 0 42 0;
#X connect 28 0 100 0;
#X connect 29 0 42 2;
#X connect 31 0 43 0;
#X connect 32 0 101 0;
#X connect 33 0 43 2;
#X connect 34 0 35 0;
#X connect 35 0 40 0;
#X connect 35 1 29 0;
#X connect 35 2 33 0;
#X connect 35 3 36 0;
#X connect 37 0 41 0;
#X connect 38 0 37 0;
#X connect 39 0 99 0;
#X connect 40 0 37 2;
#X connect 42 0 26 0;
#X connect 43 0 30 0;
#X connect 44 0 17 1;
#X connect 53 0 92 0;
#X connect 54 0 92 4;
#X connect 55 0 92 7;
#X connect 56 0 92 9;
#X connect 57 0 92 11;
#X connect 58 0 92 2;
#X connect 59 0 92 5;
#X connect 61 0 92 1;
#X connect 62 0 92 3;
#X connect 63 0 92 6;
#X connect 64 0 92 8;
#X connect 65 0 92 10;
#X connect 67 0 93 0;
#X connect 68 0 93 1;
#X connect 69 0 93 2;
#X connect 70 0 93 3;
#X connect 71 0 93 4;
#X connect 72 0 93 5;
#X connect 73 0 93 6;
#X connect 74 0 93 7;
#X connect 75 0 93 8;
#X connect 76 0 93 9;
#X connect 77 0 93 10;
#X connect 94 0 95 0;
#X connect 95 0 115 0;
#X connect 97 0 93 11;
#X connect 98 0 19 0;
#X connect 99 0 37 1;
#X connect 99 1 108 0;
#X connect 100 0 42 1;
#X connect 100 1 105 0;
#X connect 101 0 43 1;
#X connect 101 1 102 0;
#X connect 102 0 103 0;
#X connect 103 0 104 0;
#X connect 103 0 102 1;
#X connect 104 0 111 0;
#X connect 105 0 106 0;
#X connect 106 0 107 0;
#X connect 106 0 105 1;
#X connect 107 0 111 0;
#X connect 108 0 109 0;
#X connect 109 0 110 0;
#X connect 109 0 108 1;
#X connect 110 0 111 0;
#X connect 111 0 112 0;
#X connect 112 0 113 0;
#X connect 112 0 111 1;
#X connect 113 0 114 0;
#X connect 114 0 13 0;
#X connect 116 0 2 0;
#X connect 120 0 1 0;
#X connect 123 0 11 0;
#X connect 125 0 3 0;
#X connect 126 0 127 0;
#X connect 129 0 128 0;
#X coords 0 -1 1 1 650 590 1 400 0;
